<?xml version="1.0" encoding="UTF-8" standalone="no"?>
<svg
   style="enable-background:new"
   width="22"
   height="22"
   version="1.1"
   id="svg5647"
   sodipodi:docname="maximize.svg"
   inkscape:version="1.2.1 (9c6d41e410, 2022-07-14)"
   xmlns:inkscape="http://www.inkscape.org/namespaces/inkscape"
   xmlns:sodipodi="http://sodipodi.sourceforge.net/DTD/sodipodi-0.dtd"
   xmlns="http://www.w3.org/2000/svg"
   xmlns:svg="http://www.w3.org/2000/svg">
  <defs
     id="defs5651" />
  <sodipodi:namedview
     id="namedview5649"
     pagecolor="#ffffff"
     bordercolor="#000000"
     borderopacity="0.25"
     inkscape:showpageshadow="2"
     inkscape:pageopacity="0.0"
     inkscape:pagecheckerboard="0"
     inkscape:deskcolor="#d1d1d1"
     showgrid="false"
     inkscape:zoom="8.5"
     inkscape:cx="53.058823"
     inkscape:cy="18.176471"
     inkscape:window-width="1920"
     inkscape:window-height="1016"
     inkscape:window-x="0"
     inkscape:window-y="0"
     inkscape:window-maximized="1"
     inkscape:current-layer="svg5647" />
  <g
     id="active-center"
     transform="rotate(180,11,11)">
    <rect
       style="opacity:0.00100002"
       width="22"
       height="22"
       x="0"
       y="0"
       id="rect5618" />
    <path
       id="path7623"
       style="display:inline;fill:#232627;stroke-width:1.55196"
       d="M 2.4648438,7.3730469 11,14.626953 19.535156,7.3730469 Z m 1.9863281,0.84375 H 17.548828 L 11,13.783203 Z" />
  </g>
  <g
     id="hover-center"
     transform="rotate(180,22,11)">
    <rect
       style="display:inline;opacity:0.00100002"
       width="22"
       height="22"
       x="0"
       y="0"
       id="rect5623" />
    <path
       id="path7623-1"
       style="display:inline;fill:#232627;stroke-width:1.55196;enable-background:new"
       d="M 2.464844,8.4611917 11,15.715098 19.535156,8.4611917 11,6.2849024 Z M 4.451172,9.3049418 11,7.2147911 17.548828,9.3049418 11,14.871348 Z"
       sodipodi:nodetypes="cccccccccc" />
  </g>
  <g
     id="pressed-center"
     transform="rotate(180,33,11)">
    <rect
       style="opacity:0.00100002"
       width="22"
       height="22"
       x="0"
       y="0"
       id="rect5630" />
    <path
       id="path7623-1-8"
       style="display:inline;fill:#232627;stroke-width:1.55196;enable-background:new"
       d="M 11,6.285156 2.464844,8.4609374 11,15.714844 19.535156,8.4609374 Z M 11,7.2148436 17.548828,9.3046874 11,14.871094 4.4511721,9.3046874 Z M 11,8.1914061 6.8750002,9.2460936 11,13.585938 15.125,9.2460936 Z" />
  </g>
  <g
     id="inactive-center"
     transform="rotate(180,44,11)">
    <rect
       style="opacity:0.00100002"
       width="22"
       height="22"
       x="0"
       y="0"
       id="rect5637" />
    <path
       id="path7697"
       style="display:inline;fill:#242628;fill-opacity:0.501961;stroke-width:0.707625;enable-background:new"
       d="M 2.4648438,7.3730469 11,14.626953 19.535156,7.3730469 Z m 1.9863281,0.84375 H 17.548828 L 11,13.783203 Z M 6.8671875,9.2441406 11,12.359375 15.132812,9.2441406 Z" />
  </g>
  <g
     id="deactivated-center"
     transform="rotate(180,55,11)">
    <rect
       style="opacity:0.00100002"
       width="22"
       height="22"
       x="0"
       y="0"
       id="rect5642" />
    <path
       id="path7697-7"
       style="display:inline;fill:#242628;fill-opacity:0.501961;stroke-width:0.707625;enable-background:new"
       d="M 2.464844,7.3730471 11,14.626953 19.535156,7.3730471 Z m 1.986328,0.84375 H 17.548828 L 11,13.783203 Z M 6.867188,9.2441409 11,12.359375 15.132812,9.2441409 Z" />
  </g>
</svg>
