<?xml version="1.0" encoding="UTF-8" standalone="no"?>
<svg
   style="enable-background:new"
   width="22"
   height="22"
   version="1.1"
   id="svg5647"
   sodipodi:docname="maximize.svg"
   inkscape:version="1.2.1 (9c6d41e410, 2022-07-14)"
   xmlns:inkscape="http://www.inkscape.org/namespaces/inkscape"
   xmlns:sodipodi="http://sodipodi.sourceforge.net/DTD/sodipodi-0.dtd"
   xmlns="http://www.w3.org/2000/svg"
   xmlns:svg="http://www.w3.org/2000/svg">
  <defs
     id="defs5651" />
  <sodipodi:namedview
     id="namedview5649"
     pagecolor="#ffffff"
     bordercolor="#000000"
     borderopacity="0.25"
     inkscape:showpageshadow="2"
     inkscape:pageopacity="0.0"
     inkscape:pagecheckerboard="0"
     inkscape:deskcolor="#d1d1d1"
     showgrid="false"
     inkscape:zoom="3.0052038"
     inkscape:cx="97.331171"
     inkscape:cy="39.764359"
     inkscape:window-width="1920"
     inkscape:window-height="1014"
     inkscape:window-x="0"
     inkscape:window-y="0"
     inkscape:window-maximized="1"
     inkscape:current-layer="svg5647" />
  <g
     id="active-center"
     transform="rotate(180,11,11)">
    <rect
       style="opacity:0.00100002"
       width="22"
       height="22"
       x="0"
       y="0"
       id="rect5618" />
    <path
       id="path7623"
       style="display:inline;fill:#232627;stroke-width:1.55196"
       d="M 2.4648438,4.9485383 11,15.346492 19.535156,4.9485618 Z M 4.4511719,5.7919134 17.548828,5.7923118 11,8.5751169 Z"
       sodipodi:nodetypes="cccccccc" />
  </g>
  <g
     id="hover-center"
     transform="rotate(180,22,11)">
    <rect
       style="display:inline;opacity:0.00100002"
       width="22"
       height="22"
       x="0"
       y="0"
       id="rect5623" />
    <path
       id="path7623-1"
       style="display:inline;fill:#232627;stroke-width:1.55196;enable-background:new"
       d="M 2.464844,6.0365618 11,15.346515 19.535156,6.0367066 11,3.8604173 Z M 4.451172,6.8804567 11,4.790306 17.548828,6.8804567 11,12.446863 Z"
       sodipodi:nodetypes="cccccccccc" />
  </g>
  <g
     id="pressed-center"
     transform="rotate(180,33,11)">
    <rect
       style="opacity:0.00100002"
       width="22"
       height="22"
       x="0"
       y="0"
       id="rect5630" />
    <path
       id="path7623-1-8"
       style="display:inline;fill:#232627;stroke-width:1.55196;enable-background:new"
       d="M 11,3.8606709 2.464844,6.0364523 11,15.346515 19.535156,6.0364523 Z M 11,4.7903585 17.548828,6.8802023 11,12.446609 4.4511721,6.8802023 Z M 11,5.766921 6.8750002,6.8216085 11,11.161453 15.125,6.8216085 Z"
       sodipodi:nodetypes="ccccccccccccccc" />
  </g>
  <g
     id="inactive-center"
     transform="rotate(180,44,11)">
    <rect
       style="opacity:0.00100002"
       width="22"
       height="22"
       x="0"
       y="0"
       id="rect5637" />
    <path
       id="path7697"
       style="display:inline;fill:#242628;fill-opacity:0.501961;stroke-width:0.707625;enable-background:new"
       d="M 2.4648438,4.9485618 11,15.346515 19.535156,4.9485618 Z m 1.9863281,0.84375 H 17.548828 L 11,11.358718 Z M 6.8671875,6.8196555 11,9.9348899 15.132812,6.8196555 Z"
       sodipodi:nodetypes="cccccccccccc" />
  </g>
  <g
     id="deactivated-center"
     transform="rotate(180,55,11)">
    <rect
       style="opacity:0.00100002"
       width="22"
       height="22"
       x="0"
       y="0"
       id="rect5642" />
    <path
       id="path7697-7"
       style="display:inline;fill:#242628;fill-opacity:0.501961;stroke-width:0.707625;enable-background:new"
       d="M 2.464844,4.948562 11,15.346515 19.535156,4.948562 Z m 1.986328,0.84375 H 17.548828 L 11,11.358718 Z M 6.867188,6.8196558 11,9.9348899 15.132812,6.8196558 Z"
       sodipodi:nodetypes="cccccccccccc" />
  </g>
</svg>
